<svg width="22" height="21" viewBox="0 0 22 21" fill="none" xmlns="http://www.w3.org/2000/svg">
<g clip-path="url(#clip0_1_197)">
<path d="M20.6064 13.9935H20.2617V11.3743C20.2617 11.0067 20.1354 10.6966 19.8827 10.4438C19.6299 10.1911 19.3198 10.0648 18.9522 10.0648V4.61969C18.9522 4.25209 18.8258 3.94193 18.5731 3.6892C18.3204 3.43648 18.0102 3.31011 17.6426 3.31011H4.13333C3.76573 3.31011 3.45557 3.43648 3.20284 3.6892C2.95012 3.94193 2.82376 4.25209 2.82376 4.61969V10.0648C2.45616 10.0648 2.146 10.1911 1.89327 10.4438C1.64055 10.6966 1.51418 11.0067 1.51418 11.3743V13.9935H1.16956C1.07766 13.9935 1.00873 14.0164 0.962785 14.0624C0.916835 14.1083 0.89386 14.1773 0.89386 14.2692V15.5787C0.89386 15.6706 0.916835 15.7511 0.962785 15.82C1.00873 15.8889 1.07766 15.9234 1.16956 15.9234H1.51418V17.164C1.51418 17.2559 1.54865 17.3363 1.61757 17.4052C1.6865 17.4742 1.76691 17.5086 1.85881 17.5086H2.82376C3.00756 17.5086 3.09946 17.4167 3.09946 17.2329L3.37516 15.9234H18.4008L18.6765 17.2329C18.6765 17.4167 18.7684 17.5086 18.9522 17.5086H19.9171C20.009 17.5086 20.0894 17.4742 20.1584 17.4052C20.2273 17.3363 20.2617 17.2559 20.2617 17.164V15.9234H20.6064C20.6983 15.9234 20.7672 15.8889 20.8131 15.82C20.8591 15.7511 20.8821 15.6706 20.8821 15.5787V14.2692C20.8821 14.1773 20.8591 14.1083 20.8131 14.0624C20.7672 14.0164 20.6983 13.9935 20.6064 13.9935ZM3.44408 4.61969C3.44408 4.43589 3.51301 4.27506 3.65085 4.13721C3.7887 3.99936 3.94953 3.93044 4.13333 3.93044H17.6426C17.8264 3.93044 17.9872 3.99936 18.1251 4.13721C18.2629 4.27506 18.3319 4.43589 18.3319 4.61969V10.0648H17.6426V8.8241C17.6426 8.4565 17.5162 8.14634 17.2635 7.89362C17.0108 7.64089 16.7236 7.51453 16.402 7.51453H12.4732C12.1516 7.51453 11.8644 7.64089 11.6117 7.89362C11.359 8.14634 11.2326 8.4565 11.2326 8.8241V10.0648H10.5433V8.8241C10.5433 8.4565 10.417 8.14634 10.1643 7.89362C9.91153 7.64089 9.62434 7.51453 9.30269 7.51453H5.37398C5.05233 7.51453 4.76514 7.64089 4.51242 7.89362C4.25969 8.14634 4.13333 8.4565 4.13333 8.8241V10.0648H3.44408V4.61969ZM17.0223 8.8241V10.0648H11.8529V8.8241C11.8529 8.6403 11.9218 8.47948 12.0597 8.34163C12.1975 8.20378 12.3354 8.13485 12.4732 8.13485H16.402C16.5858 8.13485 16.7351 8.20378 16.85 8.34163C16.9648 8.47948 17.0223 8.6403 17.0223 8.8241ZM9.92302 8.8241V10.0648H4.75365V8.8241C4.75365 8.6403 4.81109 8.47948 4.92596 8.34163C5.04084 8.20378 5.19018 8.13485 5.37398 8.13485H9.30269C9.44054 8.13485 9.57839 8.20378 9.71624 8.34163C9.85409 8.47948 9.92302 8.6403 9.92302 8.8241ZM2.13451 11.3743C2.13451 11.1905 2.20343 11.0412 2.34128 10.9263C2.47913 10.8114 2.63996 10.754 2.82376 10.754H18.9522C19.136 10.754 19.2968 10.8114 19.4347 10.9263C19.5725 11.0412 19.6414 11.1905 19.6414 11.3743V13.9935H2.13451V11.3743ZM2.54806 16.8883H2.13451V15.9234H2.75483L2.54806 16.8883ZM19.6414 16.8883H19.2279L19.0211 15.9234H19.6414V16.8883ZM20.2617 15.2341H1.51418V14.6138H20.2617V15.2341Z" fill="#696969"/>
</g>
<defs>
<clipPath id="clip0_1_197">
<rect width="20.6775" height="20.6775" fill="white" transform="matrix(1 0 0 -1 0.892822 20.7482)"/>
</clipPath>
</defs>
</svg>
