<svg width="97" height="37" viewBox="0 0 97 37" fill="none" xmlns="http://www.w3.org/2000/svg">
<rect x="0.147217" y="0.230957" width="96.4948" height="36.1856" rx="2.89478" fill="#3D9970"/>
<path d="M23.0727 22.2726V13.1726H24.5677V22.2726H23.0727ZM24.0997 18.3726V17.0076H28.7277V18.3726H24.0997ZM24.0997 14.5376V13.1726H28.9487V14.5376H24.0997ZM32.8988 22.4026C32.2748 22.4026 31.7115 22.2639 31.2088 21.9866C30.7148 21.7006 30.3205 21.3106 30.0258 20.8166C29.7398 20.3226 29.5968 19.7679 29.5968 19.1526C29.5968 18.5372 29.7398 17.9869 30.0258 17.5016C30.3118 17.0076 30.6975 16.6176 31.1828 16.3316C31.6768 16.0456 32.2228 15.9026 32.8208 15.9026C33.4015 15.9026 33.9128 16.0369 34.3548 16.3056C34.8055 16.5742 35.1565 16.9426 35.4078 17.4106C35.6678 17.8786 35.7978 18.4116 35.7978 19.0096C35.7978 19.1136 35.7891 19.2219 35.7718 19.3346C35.7631 19.4386 35.7458 19.5556 35.7198 19.6856H30.5978V18.5156H34.9788L34.4458 18.9836C34.4285 18.6022 34.3548 18.2816 34.2248 18.0216C34.0948 17.7616 33.9085 17.5622 33.6658 17.4236C33.4318 17.2849 33.1415 17.2156 32.7948 17.2156C32.4308 17.2156 32.1145 17.2936 31.8458 17.4496C31.5771 17.6056 31.3691 17.8266 31.2218 18.1126C31.0745 18.3899 31.0008 18.7236 31.0008 19.1136C31.0008 19.5036 31.0788 19.8459 31.2348 20.1406C31.3908 20.4352 31.6118 20.6649 31.8978 20.8296C32.1838 20.9856 32.5131 21.0636 32.8858 21.0636C33.2065 21.0636 33.5011 21.0072 33.7698 20.8946C34.0471 20.7819 34.2811 20.6172 34.4718 20.4006L35.3818 21.3236C35.0785 21.6789 34.7101 21.9476 34.2768 22.1296C33.8435 22.3116 33.3841 22.4026 32.8988 22.4026ZM39.5571 22.4026C38.9938 22.4026 38.4825 22.2596 38.0231 21.9736C37.5725 21.6876 37.2128 21.3019 36.9441 20.8166C36.6841 20.3226 36.5541 19.7722 36.5541 19.1656C36.5541 18.5502 36.6841 17.9999 36.9441 17.5146C37.2128 17.0206 37.5725 16.6306 38.0231 16.3446C38.4825 16.0499 38.9938 15.9026 39.5571 15.9026C40.0338 15.9026 40.4541 16.0066 40.8181 16.2146C41.1908 16.4139 41.4855 16.6912 41.7021 17.0466C41.9188 17.4019 42.0271 17.8049 42.0271 18.2556V20.0496C42.0271 20.5002 41.9188 20.9032 41.7021 21.2586C41.4941 21.6139 41.2038 21.8956 40.8311 22.1036C40.4585 22.3029 40.0338 22.4026 39.5571 22.4026ZM39.7911 21.0506C40.3198 21.0506 40.7445 20.8729 41.0651 20.5176C41.3945 20.1622 41.5591 19.7072 41.5591 19.1526C41.5591 18.7799 41.4855 18.4506 41.3381 18.1646C41.1908 17.8786 40.9828 17.6576 40.7141 17.5016C40.4541 17.3369 40.1465 17.2546 39.7911 17.2546C39.4445 17.2546 39.1368 17.3369 38.8681 17.5016C38.6081 17.6576 38.4001 17.8786 38.2441 18.1646C38.0968 18.4506 38.0231 18.7799 38.0231 19.1526C38.0231 19.5252 38.0968 19.8546 38.2441 20.1406C38.4001 20.4266 38.6081 20.6519 38.8681 20.8166C39.1368 20.9726 39.4445 21.0506 39.7911 21.0506ZM41.4681 22.2726V20.5956L41.7151 19.0746L41.4681 17.5666V16.0326H42.8981V22.2726H41.4681ZM45.4341 22.2726V13.4326H46.8641V22.2726H45.4341ZM43.9391 17.3326V16.0326H48.3591V17.3326H43.9391ZM51.9592 22.4026C51.4306 22.4026 50.9582 22.2856 50.5422 22.0516C50.1349 21.8176 49.8142 21.4969 49.5802 21.0896C49.3549 20.6736 49.2422 20.1969 49.2422 19.6596V16.0326H50.6722V19.5946C50.6722 19.8979 50.7199 20.1579 50.8152 20.3746C50.9192 20.5826 51.0666 20.7429 51.2572 20.8556C51.4566 20.9682 51.6906 21.0246 51.9592 21.0246C52.3752 21.0246 52.6916 20.9032 52.9082 20.6606C53.1336 20.4092 53.2462 20.0539 53.2462 19.5946V16.0326H54.6762V19.6596C54.6762 20.2056 54.5592 20.6866 54.3252 21.1026C54.0999 21.5099 53.7836 21.8306 53.3762 22.0646C52.9689 22.2899 52.4966 22.4026 51.9592 22.4026ZM56.1141 22.2726V16.0326H57.5441V22.2726H56.1141ZM57.5441 18.8016L57.0501 18.5546C57.0501 17.7659 57.2234 17.1289 57.5701 16.6436C57.9254 16.1496 58.4584 15.9026 59.1691 15.9026C59.4811 15.9026 59.7627 15.9589 60.0141 16.0716C60.2654 16.1842 60.4994 16.3662 60.7161 16.6176L59.7801 17.5796C59.6674 17.4582 59.5417 17.3716 59.4031 17.3196C59.2644 17.2676 59.1041 17.2416 58.9221 17.2416C58.5234 17.2416 58.1941 17.3672 57.9341 17.6186C57.6741 17.8699 57.5441 18.2642 57.5441 18.8016ZM64.1166 22.4026C63.4926 22.4026 62.9292 22.2639 62.4266 21.9866C61.9326 21.7006 61.5382 21.3106 61.2436 20.8166C60.9576 20.3226 60.8146 19.7679 60.8146 19.1526C60.8146 18.5372 60.9576 17.9869 61.2436 17.5016C61.5296 17.0076 61.9152 16.6176 62.4006 16.3316C62.8946 16.0456 63.4406 15.9026 64.0386 15.9026C64.6192 15.9026 65.1306 16.0369 65.5726 16.3056C66.0232 16.5742 66.3742 16.9426 66.6256 17.4106C66.8856 17.8786 67.0156 18.4116 67.0156 19.0096C67.0156 19.1136 67.0069 19.2219 66.9896 19.3346C66.9809 19.4386 66.9636 19.5556 66.9376 19.6856H61.8156V18.5156H66.1966L65.6636 18.9836C65.6462 18.6022 65.5726 18.2816 65.4426 18.0216C65.3126 17.7616 65.1262 17.5622 64.8836 17.4236C64.6496 17.2849 64.3592 17.2156 64.0126 17.2156C63.6486 17.2156 63.3322 17.2936 63.0636 17.4496C62.7949 17.6056 62.5869 17.8266 62.4396 18.1126C62.2922 18.3899 62.2186 18.7236 62.2186 19.1136C62.2186 19.5036 62.2966 19.8459 62.4526 20.1406C62.6086 20.4352 62.8296 20.6649 63.1156 20.8296C63.4016 20.9856 63.7309 21.0636 64.1036 21.0636C64.4242 21.0636 64.7189 21.0072 64.9876 20.8946C65.2649 20.7819 65.4989 20.6172 65.6896 20.4006L66.5996 21.3236C66.2962 21.6789 65.9279 21.9476 65.4946 22.1296C65.0612 22.3116 64.6019 22.4026 64.1166 22.4026ZM70.7749 22.4026C70.2116 22.4026 69.7002 22.2596 69.2409 21.9736C68.7902 21.6876 68.4306 21.3019 68.1619 20.8166C67.9019 20.3226 67.7719 19.7722 67.7719 19.1656C67.7719 18.5502 67.9019 17.9999 68.1619 17.5146C68.4306 17.0206 68.7902 16.6306 69.2409 16.3446C69.7002 16.0499 70.2116 15.9026 70.7749 15.9026C71.2516 15.9026 71.6719 16.0066 72.0359 16.2146C72.4086 16.4139 72.7032 16.6912 72.9199 17.0466C73.1366 17.4019 73.2449 17.8049 73.2449 18.2556V20.0496C73.2449 20.5002 73.1366 20.9032 72.9199 21.2586C72.7119 21.6139 72.4216 21.8956 72.0489 22.1036C71.6762 22.3029 71.2516 22.4026 70.7749 22.4026ZM71.0089 21.0506C71.3642 21.0506 71.6719 20.9726 71.9319 20.8166C72.2006 20.6519 72.4086 20.4266 72.5559 20.1406C72.7032 19.8546 72.7769 19.5252 72.7769 19.1526C72.7769 18.7799 72.7032 18.4506 72.5559 18.1646C72.4086 17.8786 72.2006 17.6576 71.9319 17.5016C71.6719 17.3369 71.3642 17.2546 71.0089 17.2546C70.6622 17.2546 70.3546 17.3369 70.0859 17.5016C69.8259 17.6576 69.6179 17.8786 69.4619 18.1646C69.3146 18.4506 69.2409 18.7799 69.2409 19.1526C69.2409 19.5252 69.3146 19.8546 69.4619 20.1406C69.6179 20.4266 69.8259 20.6519 70.0859 20.8166C70.3546 20.9726 70.6622 21.0506 71.0089 21.0506ZM74.1159 22.2726H72.6859V20.5956L72.9329 19.0746L72.6859 17.5666V12.9126H74.1159V22.2726Z" fill="white"/>
</svg>
