<svg width="43" height="42" viewBox="0 0 43 42" fill="none" xmlns="http://www.w3.org/2000/svg">
<rect x="0.801392" y="0.631775" width="41.3549" height="41.3549" rx="9.18998" fill="#878787" fill-opacity="0.7"/>
<g clip-path="url(#clip0_1_176)">
<path d="M27.3264 23.8119C27.3264 23.5555 27.2367 23.3376 27.0572 23.1581L25.0571 21.158C24.8777 20.9785 24.6597 20.8888 24.4033 20.8888C24.134 20.8888 23.9033 20.9913 23.711 21.1965C23.7302 21.2157 23.7911 21.275 23.8937 21.3744C23.9962 21.4737 24.0651 21.5426 24.1004 21.5811C24.1356 21.6196 24.1837 21.6805 24.2446 21.7638C24.3055 21.8471 24.3472 21.9289 24.3696 22.009C24.3921 22.0891 24.4033 22.1773 24.4033 22.2734C24.4033 22.5298 24.3135 22.7478 24.134 22.9273C23.9546 23.1068 23.7366 23.1965 23.4802 23.1965C23.384 23.1965 23.2959 23.1853 23.2158 23.1629C23.1356 23.1404 23.0539 23.0988 22.9706 23.0379C22.8872 22.977 22.8263 22.9289 22.7879 22.8936C22.7494 22.8584 22.6805 22.7895 22.5811 22.6869C22.4818 22.5843 22.4225 22.5234 22.4032 22.5042C22.1917 22.7029 22.0859 22.9369 22.0859 23.2061C22.0859 23.4626 22.1757 23.6805 22.3552 23.86L24.336 25.8504C24.5091 26.0235 24.727 26.1101 24.9898 26.1101C25.2463 26.1101 25.4642 26.0267 25.6437 25.8601L27.0572 24.4562C27.2367 24.2767 27.3264 24.0619 27.3264 23.8119ZM20.5666 17.0329C20.5666 16.7765 20.4769 16.5585 20.2974 16.379L18.3166 14.3886C18.1371 14.2091 17.9191 14.1194 17.6627 14.1194C17.4127 14.1194 17.1948 14.2059 17.0089 14.379L15.5954 15.7829C15.4159 15.9624 15.3261 16.1771 15.3261 16.4271C15.3261 16.6835 15.4159 16.9015 15.5954 17.081L17.5954 19.081C17.7685 19.2541 17.9864 19.3407 18.2493 19.3407C18.5185 19.3407 18.7493 19.2413 18.9416 19.0426C18.9224 19.0233 18.8615 18.964 18.7589 18.8647C18.6563 18.7653 18.5874 18.6964 18.5522 18.6579C18.5169 18.6195 18.4688 18.5586 18.4079 18.4752C18.347 18.3919 18.3054 18.3102 18.2829 18.2301C18.2605 18.1499 18.2493 18.0618 18.2493 17.9656C18.2493 17.7092 18.339 17.4912 18.5185 17.3118C18.698 17.1323 18.916 17.0425 19.1724 17.0425C19.2685 17.0425 19.3567 17.0537 19.4368 17.0762C19.5169 17.0986 19.5987 17.1403 19.682 17.2012C19.7653 17.2621 19.8262 17.3102 19.8647 17.3454C19.9032 17.3807 19.9721 17.4496 20.0714 17.5521C20.1708 17.6547 20.2301 17.7156 20.2493 17.7348C20.4609 17.5361 20.5666 17.3021 20.5666 17.0329ZM28.3649 21.8503C28.9034 22.3888 29.1726 23.0427 29.1726 23.8119C29.1726 24.5812 28.9002 25.2318 28.3553 25.7639L26.9418 27.1678C26.4097 27.6998 25.7591 27.9659 24.9898 27.9659C24.2142 27.9659 23.5603 27.6934 23.0282 27.1486L21.0474 25.1581C20.5154 24.6261 20.2493 23.9754 20.2493 23.2061C20.2493 22.4177 20.5314 21.7478 21.0955 21.1965L20.2493 20.3503C19.698 20.9144 19.0313 21.1965 18.2493 21.1965C17.48 21.1965 16.8262 20.9272 16.2877 20.3888L14.2876 18.3887C13.7492 17.8502 13.4799 17.1964 13.4799 16.4271C13.4799 15.6579 13.7524 15.0072 14.2972 14.4751L15.7107 13.0713C16.2428 12.5392 16.8935 12.2732 17.6627 12.2732C18.4384 12.2732 19.0922 12.5456 19.6243 13.0905L21.6051 15.0809C22.1372 15.613 22.4032 16.2637 22.4032 17.0329C22.4032 17.8214 22.1212 18.4913 21.5571 19.0426L22.4032 19.8887C22.9545 19.3246 23.6212 19.0426 24.4033 19.0426C25.1725 19.0426 25.8264 19.3118 26.3649 19.8503L28.3649 21.8503Z" fill="white"/>
</g>
<defs>
<clipPath id="clip0_1_176">
<rect width="16.0135" height="17.2312" fill="white" transform="matrix(1 0 0 -1 13.4733 29.3504)"/>
</clipPath>
</defs>
</svg>
