<svg width="217" height="48" viewBox="0 0 217 48" fill="none" xmlns="http://www.w3.org/2000/svg">
<ellipse cx="24.312" cy="23.7568" rx="23.6066" ry="23.6065" fill="#4BA586"/>
<path d="M70.0237 23.1438C71.0813 23.3326 71.9783 23.8898 72.7148 24.8151C73.4514 25.7405 73.8196 26.7886 73.8196 27.9595C73.8196 28.9604 73.5552 29.8669 73.0264 30.679C72.5165 31.4722 71.7706 32.1048 70.7885 32.577C69.8065 33.0302 68.664 33.2568 67.3609 33.2568H59.4857V13.569H66.9926C68.3335 13.569 69.4855 13.7956 70.4486 14.2489C71.4118 14.7021 72.1388 15.3159 72.6299 16.0902C73.1209 16.8456 73.3664 17.6954 73.3664 18.6397C73.3664 19.7728 73.0642 20.717 72.4599 21.4725C71.8556 22.2279 71.0435 22.785 70.0237 23.1438ZM62.7151 21.8407H66.7093C67.7669 21.8407 68.5884 21.6047 69.1739 21.1325C69.7782 20.6415 70.0803 19.9428 70.0803 19.0363C70.0803 18.1487 69.7782 17.4593 69.1739 16.9683C68.5884 16.4584 67.7669 16.2035 66.7093 16.2035H62.7151V21.8407ZM67.0776 30.6223C68.1729 30.6223 69.0322 30.358 69.6554 29.8292C70.2786 29.3004 70.5902 28.5639 70.5902 27.6196C70.5902 26.6564 70.2598 25.8916 69.5988 25.325C68.9378 24.7585 68.0596 24.4752 66.9643 24.4752H62.7151V30.6223H67.0776ZM92.2247 25.0701C92.2247 25.6555 92.1869 26.1843 92.1114 26.6564H80.1853C80.2798 27.9029 80.7425 28.9038 81.5734 29.6592C82.4044 30.4146 83.4242 30.7923 84.6328 30.7923C86.3703 30.7923 87.5978 30.0652 88.3154 28.6111H91.7998C91.3276 30.0463 90.4684 31.2267 89.2219 32.1521C87.9944 33.0585 86.4647 33.5118 84.6328 33.5118C83.1409 33.5118 81.8 33.1813 80.6103 32.5203C79.4394 31.8404 78.514 30.8962 77.8341 29.6875C77.1732 28.46 76.8427 27.0436 76.8427 25.4384C76.8427 23.8331 77.1637 22.4262 77.8058 21.2175C78.4668 19.99 79.3827 19.0457 80.5536 18.3847C81.7434 17.7237 83.1031 17.3932 84.6328 17.3932C86.1059 17.3932 87.4184 17.7143 88.5704 18.3564C89.7224 18.9985 90.6194 19.905 91.2615 21.0759C91.9036 22.2279 92.2247 23.5593 92.2247 25.0701ZM88.8537 24.0503C88.8348 22.8605 88.4099 21.9068 87.5789 21.1892C86.748 20.4715 85.7187 20.1127 84.4912 20.1127C83.3769 20.1127 82.4232 20.4715 81.6301 21.1892C80.8369 21.8879 80.3648 22.8416 80.2137 24.0503H88.8537ZM99.7605 20.2827V28.9227C99.7605 29.5081 99.8927 29.933 100.157 30.1974C100.44 30.4429 100.912 30.5657 101.573 30.5657H103.556V33.2568H101.007C99.5527 33.2568 98.4385 32.9169 97.6642 32.237C96.8899 31.5572 96.5028 30.4524 96.5028 28.9227V20.2827H94.6615V17.6482H96.5028V13.7673H99.7605V17.6482H103.556V20.2827H99.7605ZM106.047 25.3817C106.047 23.8142 106.368 22.4262 107.01 21.2175C107.671 20.0088 108.558 19.074 109.672 18.413C110.806 17.7332 112.052 17.3932 113.412 17.3932C114.639 17.3932 115.706 17.6388 116.613 18.1298C117.538 18.6019 118.275 19.1968 118.822 19.9144V17.6482H122.08V33.2568H118.822V30.934C118.275 31.6705 117.529 32.2842 116.584 32.7753C115.64 33.2663 114.564 33.5118 113.355 33.5118C112.014 33.5118 110.787 33.1719 109.672 32.492C108.558 31.7932 107.671 30.8301 107.01 29.6025C106.368 28.3561 106.047 26.9492 106.047 25.3817ZM118.822 25.4384C118.822 24.3619 118.596 23.4271 118.143 22.6339C117.708 21.8407 117.132 21.2364 116.415 20.8209C115.697 20.4054 114.923 20.1977 114.092 20.1977C113.261 20.1977 112.486 20.4054 111.769 20.8209C111.051 21.2175 110.466 21.8124 110.012 22.6056C109.578 23.3799 109.361 24.3052 109.361 25.3817C109.361 26.4582 109.578 27.4024 110.012 28.2145C110.466 29.0265 111.051 29.6498 111.769 30.0841C112.505 30.4996 113.28 30.7073 114.092 30.7073C114.923 30.7073 115.697 30.4996 116.415 30.0841C117.132 29.6686 117.708 29.0643 118.143 28.2711C118.596 27.4591 118.822 26.5148 118.822 25.4384ZM142.634 13.569V33.2568H139.404V24.6452H130.141V33.2568H126.912V13.569H130.141V22.0107H139.404V13.569H142.634ZM154.246 33.5118C152.773 33.5118 151.441 33.1813 150.252 32.5203C149.062 31.8404 148.127 30.8962 147.447 29.6875C146.767 28.46 146.427 27.0436 146.427 25.4384C146.427 23.852 146.777 22.445 147.475 21.2175C148.174 19.99 149.128 19.0457 150.337 18.3847C151.545 17.7237 152.895 17.3932 154.387 17.3932C155.879 17.3932 157.23 17.7237 158.438 18.3847C159.647 19.0457 160.601 19.99 161.299 21.2175C161.998 22.445 162.348 23.852 162.348 25.4384C162.348 27.0247 161.989 28.4317 161.271 29.6592C160.553 30.8867 159.571 31.8404 158.325 32.5203C157.097 33.1813 155.738 33.5118 154.246 33.5118ZM154.246 30.7073C155.077 30.7073 155.851 30.509 156.569 30.1124C157.305 29.7159 157.9 29.121 158.353 28.3278C158.807 27.5346 159.033 26.5715 159.033 25.4384C159.033 24.3052 158.816 23.3515 158.382 22.5772C157.947 21.7841 157.371 21.1892 156.654 20.7926C155.936 20.396 155.162 20.1977 154.331 20.1977C153.5 20.1977 152.725 20.396 152.008 20.7926C151.309 21.1892 150.752 21.7841 150.337 22.5772C149.921 23.3515 149.713 24.3052 149.713 25.4384C149.713 27.1191 150.138 28.4222 150.988 29.3476C151.857 30.2541 152.943 30.7073 154.246 30.7073ZM180.266 17.6482V33.2568H177.036V31.4155C176.526 32.0576 175.856 32.5675 175.025 32.9452C174.213 33.304 173.344 33.4835 172.419 33.4835C171.191 33.4835 170.087 33.2285 169.105 32.7186C168.141 32.2087 167.377 31.4533 166.81 30.4524C166.262 29.4515 165.988 28.2428 165.988 26.8264V17.6482H169.189V26.3448C169.189 27.7423 169.539 28.8188 170.238 29.5742C170.936 30.3107 171.89 30.679 173.099 30.679C174.307 30.679 175.261 30.3107 175.96 29.5742C176.677 28.8188 177.036 27.7423 177.036 26.3448V17.6482H180.266ZM190.782 33.5118C189.555 33.5118 188.45 33.2946 187.468 32.8602C186.505 32.407 185.74 31.8027 185.173 31.0473C184.607 30.273 184.305 29.4137 184.267 28.4694H187.61C187.666 29.1304 187.978 29.6875 188.544 30.1408C189.13 30.5751 189.857 30.7923 190.726 30.7923C191.632 30.7923 192.331 30.6223 192.822 30.2824C193.332 29.9236 193.587 29.4703 193.587 28.9227C193.587 28.3372 193.303 27.9029 192.737 27.6196C192.189 27.3363 191.311 27.0247 190.102 26.6848C188.932 26.3637 187.978 26.0521 187.241 25.75C186.505 25.4478 185.863 24.9851 185.315 24.3619C184.786 23.7387 184.522 22.9172 184.522 21.8974C184.522 21.0664 184.767 20.311 185.258 19.6311C185.749 18.9324 186.448 18.3847 187.355 17.9881C188.28 17.5915 189.338 17.3932 190.527 17.3932C192.303 17.3932 193.728 17.8465 194.805 18.753C195.9 19.6406 196.486 20.8587 196.561 22.4073H193.332C193.275 21.7085 192.992 21.1514 192.482 20.7359C191.972 20.3205 191.283 20.1127 190.414 20.1127C189.564 20.1127 188.913 20.2732 188.459 20.5943C188.006 20.9153 187.78 21.3403 187.78 21.869C187.78 22.2845 187.931 22.6339 188.233 22.9172C188.535 23.2005 188.903 23.4271 189.338 23.597C189.772 23.7481 190.414 23.9464 191.264 24.1919C192.397 24.4941 193.322 24.8057 194.04 25.1267C194.777 25.4289 195.409 25.8822 195.938 26.4865C196.467 27.0908 196.741 27.8934 196.759 28.8943C196.759 29.782 196.514 30.5751 196.023 31.2739C195.532 31.9726 194.833 32.5203 193.927 32.9169C193.039 33.3135 191.991 33.5118 190.782 33.5118ZM215.145 25.0701C215.145 25.6555 215.107 26.1843 215.031 26.6564H203.105C203.2 27.9029 203.662 28.9038 204.493 29.6592C205.324 30.4146 206.344 30.7923 207.553 30.7923C209.29 30.7923 210.518 30.0652 211.235 28.6111H214.72C214.248 30.0463 213.388 31.2267 212.142 32.1521C210.914 33.0585 209.385 33.5118 207.553 33.5118C206.061 33.5118 204.72 33.1813 203.53 32.5203C202.359 31.8404 201.434 30.8962 200.754 29.6875C200.093 28.46 199.763 27.0436 199.763 25.4384C199.763 23.8331 200.084 22.4262 200.726 21.2175C201.387 19.99 202.303 19.0457 203.474 18.3847C204.663 17.7237 206.023 17.3932 207.553 17.3932C209.026 17.3932 210.338 17.7143 211.49 18.3564C212.642 18.9985 213.539 19.905 214.181 21.0759C214.824 22.2279 215.145 23.5593 215.145 25.0701ZM211.774 24.0503C211.755 22.8605 211.33 21.9068 210.499 21.1892C209.668 20.4715 208.639 20.1127 207.411 20.1127C206.297 20.1127 205.343 20.4715 204.55 21.1892C203.757 21.8879 203.285 22.8416 203.134 24.0503H211.774Z" fill="white"/>
<path d="M19.2838 23.1929C20.2438 23.3975 21.0149 23.8775 21.5972 24.6329C22.1795 25.3726 22.4707 26.2224 22.4707 27.1824C22.4707 28.5674 21.9828 29.669 21.0071 30.4874C20.0471 31.29 18.7015 31.6913 16.9704 31.6913H9.25102V15.1195H16.7107C18.3946 15.1195 19.7087 15.5051 20.653 16.2762C21.613 17.0474 22.093 18.0939 22.093 19.4159C22.093 20.3916 21.8333 21.2021 21.314 21.8474C20.8104 22.4926 20.1336 22.9411 19.2838 23.1929ZM13.2877 21.8238H15.9317C16.5927 21.8238 17.0963 21.6821 17.4425 21.3988C17.8045 21.0998 17.9854 20.667 17.9854 20.1005C17.9854 19.5339 17.8045 19.1011 17.4425 18.8021C17.0963 18.5031 16.5927 18.3536 15.9317 18.3536H13.2877V21.8238ZM16.2622 28.4336C16.9389 28.4336 17.4582 28.2841 17.8202 27.9851C18.1979 27.6703 18.3867 27.2218 18.3867 26.6395C18.3867 26.0572 18.19 25.6008 17.7966 25.2703C17.4189 24.9398 16.8917 24.7746 16.2149 24.7746H13.2877V28.4336H16.2622ZM39.7549 15.1195V31.6913H35.7182V24.869H29.4388V31.6913H25.4021V15.1195H29.4388V21.6113H35.7182V15.1195H39.7549Z" fill="#FEFEFF"/>
</svg>
