<svg width="442" height="22" viewBox="0 0 442 22" fill="none" xmlns="http://www.w3.org/2000/svg">
<line x1="26.5" y1="9.90002" x2="202.5" y2="9.90001" stroke="url(#paint0_linear_1_102)" stroke-linecap="round"/>
<path d="M217.64 8.85202C218.6 8.85202 219.363 8.98536 219.928 9.25202C220.504 9.51869 220.915 9.95602 221.16 10.564C221.416 11.172 221.544 11.9774 221.544 12.98C221.544 13.9827 221.416 14.788 221.16 15.396C220.915 15.9934 220.504 16.4307 219.928 16.708C219.363 16.9747 218.6 17.108 217.64 17.108C216.701 17.108 215.944 16.9747 215.368 16.708C214.803 16.4307 214.392 15.9934 214.136 15.396C213.88 14.788 213.752 13.9827 213.752 12.98C213.752 11.9774 213.88 11.172 214.136 10.564C214.392 9.95602 214.803 9.51869 215.368 9.25202C215.944 8.98536 216.701 8.85202 217.64 8.85202ZM217.64 10.324C217.171 10.324 216.797 10.404 216.52 10.564C216.253 10.7134 216.061 10.98 215.944 11.364C215.827 11.748 215.768 12.2867 215.768 12.98C215.768 13.6734 215.827 14.212 215.944 14.596C216.061 14.98 216.253 15.2467 216.52 15.396C216.797 15.5454 217.171 15.62 217.64 15.62C218.12 15.62 218.499 15.5454 218.776 15.396C219.053 15.2467 219.245 14.98 219.352 14.596C219.469 14.212 219.528 13.6734 219.528 12.98C219.528 12.2867 219.469 11.748 219.352 11.364C219.245 10.98 219.053 10.7134 218.776 10.564C218.499 10.404 218.12 10.324 217.64 10.324ZM224.873 9.04402L225.129 10.58L225.305 10.804V16.9H223.369V9.04402H224.873ZM228.713 8.85202L228.521 10.644H227.961C227.545 10.644 227.124 10.7134 226.697 10.852C226.271 10.9907 225.737 11.1987 225.097 11.476L224.969 10.34C225.524 9.87069 226.089 9.50802 226.665 9.25202C227.241 8.98536 227.796 8.85202 228.329 8.85202H228.713Z" fill="#4F4E4E"/>
<line x1="0.5" y1="-0.5" x2="176.5" y2="-0.5" transform="matrix(-1 -8.74228e-08 -8.74228e-08 1 416 10.4)" stroke="url(#paint1_linear_1_102)" stroke-linecap="round"/>
<defs>
<linearGradient id="paint0_linear_1_102" x1="2.105" y1="10.4" x2="335.75" y2="10.3999" gradientUnits="userSpaceOnUse">
<stop stop-color="#4F4E4E" stop-opacity="0"/>
<stop offset="1" stop-color="#4F4E4E"/>
</linearGradient>
<linearGradient id="paint1_linear_1_102" x1="-23.895" y1="1.2415e-06" x2="309.75" y2="-5.30676e-05" gradientUnits="userSpaceOnUse">
<stop stop-color="#4F4E4E" stop-opacity="0"/>
<stop offset="1" stop-color="#4F4E4E"/>
</linearGradient>
</defs>
</svg>
